<svg xmlns="http://www.w3.org/2000/svg" version="1.1" xmlns:xlink="http://www.w3.org/1999/xlink" xmlns:svgjs="http://svgjs.dev/svgjs" width="128" height="128" viewBox="0 0 128 128"><g transform="matrix(0.8046875,0,0,0.8046875,12.221578124999994,28.434671815814397)"><svg viewBox="0 0 96 66" data-background-color="#ffffff" preserveAspectRatio="xMidYMid meet" height="88" width="128" xmlns="http://www.w3.org/2000/svg" xmlns:xlink="http://www.w3.org/1999/xlink"><g id="tight-bounds" transform="matrix(1,0,0,1,0.25950000000000273,0.1482670454545456)"><svg viewBox="0 0 95.48100000000001 65.70346590909091" height="65.70346590909091" width="95.48100000000001"><g><svg viewBox="0 0 95.48100000000001 65.70346590909091" height="65.70346590909091" width="95.48100000000001"><g><svg viewBox="0 0 95.48100000000001 65.70346590909091" height="65.70346590909091" width="95.48100000000001"><g id="textblocktransform"><svg viewBox="0 0 95.48100000000001 65.70346590909091" height="65.70346590909091" width="95.48100000000001" id="textblock"><g><svg viewBox="0 0 95.48100000000001 65.70346590909091" height="65.70346590909091" width="95.48100000000001"><g><svg viewBox="0 0 95.48100000000001 65.70346590909091" height="65.70346590909091" width="95.48100000000001"><g><svg xmlns="http://www.w3.org/2000/svg" xmlns:xlink="http://www.w3.org/1999/xlink" version="1.1" x="0" y="0" viewBox="10.5 21.5 79.2 54.5" enable-background="new 0 0 100 100" xml:space="preserve" height="65.70346590909091" width="95.48100000000001" class="icon-icon-0" data-fill-palette-color="accent" id="icon-0"><path d="M56.6 46.1C59.1 46.1 61 44.1 61 41.7V39.4C61 37 59 35 56.6 35S52.2 37 52.2 39.4V41.7C52.2 44.1 54.2 46.1 56.6 46.1M56.6 44.6C55.4 44.6 54.4 43.9 54 42.9 54.7 43.5 55.7 43.8 56.6 43.8 57.6 43.8 58.5 43.5 59.2 42.9 58.8 43.9 57.8 44.6 56.6 44.6M53.7 39.4C53.7 37.8 55 36.5 56.6 36.5S59.5 37.8 59.5 39.4 58.2 42.3 56.6 42.3 53.7 41 53.7 39.4M56.6 58.4C59.1 58.4 61 56.4 61 54V51.7C61 49.3 59 47.3 56.6 47.3S52.2 49.3 52.2 51.7V54C52.2 56.4 54.2 58.4 56.6 58.4M56.6 56.9C55.4 56.9 54.4 56.2 54 55.2 54.7 55.8 55.7 56.1 56.6 56.1 57.6 56.1 58.5 55.8 59.2 55.2 58.8 56.2 57.8 56.9 56.6 56.9M53.7 51.7C53.7 50.1 55 48.8 56.6 48.8S59.5 50.1 59.5 51.7 58.2 54.6 56.6 54.6 53.7 53.3 53.7 51.7M29.1 59.1H47C48 59.1 48.8 58.3 48.8 57.3V36.7C48.8 35.7 48 34.9 47 34.9H29.1C28.1 34.9 27.3 35.7 27.3 36.7V57.3C27.4 58.3 28.1 59.1 29.1 59.1M28.9 36.7C28.9 36.6 29 36.4 29.2 36.4H47.1C47.2 36.4 47.4 36.5 47.4 36.7V57.3C47.4 57.4 47.3 57.6 47.1 57.6H29.1C29 57.6 28.8 57.5 28.8 57.3V36.7zM86.5 38.6H80.8V25.7C80.8 24.5 80.4 23.5 79.6 22.7S77.8 21.5 76.6 21.5H60.2C59 21.5 58 21.9 57.2 22.7 56.4 23.4 56 24.5 56 25.7V28.8H24.6C23.3 28.8 22.3 29.8 22.3 31.1V40.8H21.7C20.2 40.8 19 40.2 18 39.3 17.1 38.4 16.5 37.1 16.5 35.7V23.4C16.5 23 16.2 22.6 15.7 22.6 15.3 22.6 14.9 22.9 14.9 23.4V35.7C14.9 37.6 15.6 39.2 16.9 40.4 18.1 41.6 19.8 42.3 21.6 42.3H22.2V45.2H20C17.4 45.2 15 46.2 13.3 47.9S10.5 51.9 10.5 54.6V67.4C10.5 67.8 10.8 68.2 11.3 68.2 11.7 68.2 12.1 67.9 12.1 67.4V54.6C12.1 50.1 15.6 46.7 20.1 46.7H22.3V49.3H21.7C19.8 49.3 18.2 50.1 17 51.3 15.7 52.5 15 54.1 15 56V75.2C15 75.6 15.3 76 15.8 76 16.2 76 16.6 75.7 16.6 75.2V56C16.6 53.1 18.9 50.8 21.8 50.8H22.4V70C22.4 71.1 22.8 72.1 23.5 72.8S25.2 74 26.3 74H62C63.1 74 64.1 73.6 64.9 72.9S66.2 71.2 66.2 70.1V31.1C66.2 29.8 65.2 28.8 63.9 28.8H57.6V25.7C57.6 24.9 57.9 24.3 58.4 23.8S59.6 23 60.4 23H76.8C77.6 23 78.3 23.3 78.8 23.8S79.6 24.9 79.6 25.7V38.6H74.2C72.6 38.6 71.3 39.9 71.3 41.5V71C71.3 72.6 72.6 73.9 74.2 73.9H86.8C88.4 73.9 89.7 72.6 89.7 71V41.5C89.4 39.9 88.1 38.6 86.5 38.6M64.6 70C64.6 70.7 64.3 71.3 63.8 71.7 63.3 72.2 62.6 72.4 61.9 72.4H26.2C25.5 72.4 24.9 72.1 24.5 71.7S23.8 70.7 23.8 69.9V65.9C24.1 66 24.3 66.1 24.6 66.1H29.1L28.6 69C28.6 69.2 28.6 69.4 28.8 69.6 28.9 69.8 29.2 69.9 29.4 69.9H32.2C32.6 69.9 32.9 69.6 32.9 69.3L33.4 66.2H35.9L35.4 69C35.4 69.2 35.4 69.4 35.6 69.6 35.7 69.8 36 69.9 36.2 69.9H39C39.4 69.9 39.7 69.6 39.7 69.3L40.2 66.2H42.7L42.1 69C42.1 69.2 42.1 69.4 42.3 69.6 42.4 69.8 42.7 69.9 42.9 69.9H45.7C46.1 69.9 46.4 69.6 46.4 69.3L46.9 66.2H49.4L48.8 69C48.8 69.2 48.8 69.4 49 69.6 49.1 69.8 49.4 69.9 49.6 69.9H52.4C52.8 69.9 53.1 69.6 53.1 69.3L53.6 66.2H56L55.6 69C55.6 69.2 55.6 69.4 55.8 69.6 55.9 69.8 56.2 69.9 56.4 69.9H59.2C59.6 69.9 59.9 69.6 59.9 69.3L60.4 66.2H63.8C64.1 66.2 64.4 66.1 64.6 66zM30.7 65.5S30.7 65.4 30.7 65.5V65.1L30.5 64.5H31.7L32 65.5 31.5 68.4H30.3zM37.4 65.5S37.4 65.4 37.4 65.5V65.2L37.2 64.6H38.4L38.7 65.6 38.2 68.5H37zM44.2 65.5S44.2 65.4 44.2 65.5V65.1L44 64.5H45.2L45.5 65.5 45 68.4H43.8zM50.9 65.5S50.9 65.4 50.9 65.5V65.1L50.7 64.5H51.9L52.2 65.5 51.7 68.4H50.5zM57.6 65.5S57.7 65.4 57.6 65.5V65.1L57.4 64.5H58.6L58.9 65.5 58.4 68.4H57.2zM63.8 30.3C64.3 30.3 64.6 30.7 64.6 31.1V63.8C64.6 64.3 64.2 64.6 63.8 64.6H60.2L59.8 63.4C59.7 63.1 59.4 62.9 59.1 62.9H56.3C56.1 62.9 55.8 63 55.7 63.2S55.5 63.6 55.6 63.9L55.8 64.6H53.4L53 63.4C52.9 63.1 52.6 62.9 52.3 62.9H49.5C49.3 62.9 49 63 48.9 63.2S48.7 63.6 48.8 63.9L49 64.6H46.6L46.2 63.4C46.1 63.1 45.8 62.9 45.5 62.9H42.7C42.5 62.9 42.2 63 42.1 63.2S41.9 63.6 42 63.9L42.2 64.6H40L39.6 63.4C39.5 63.1 39.2 62.9 38.9 62.9H36.1C35.9 62.9 35.6 63 35.5 63.2S35.3 63.6 35.4 63.9L35.6 64.6H33.2L32.8 63.4C32.7 63.1 32.4 62.9 32.1 62.9H29.3C29.1 62.9 28.8 63 28.7 63.2S28.5 63.6 28.6 63.9L28.8 64.6H24.5C24 64.6 23.7 64.2 23.7 63.8V31.1C23.7 30.6 24.1 30.3 24.5 30.3zM87.9 71C87.9 71.8 87.3 72.4 86.5 72.4H73.9C73.1 72.4 72.5 71.8 72.5 71V69.1C72.9 69.3 73.4 69.5 73.9 69.5H86.5C87 69.5 87.5 69.4 87.9 69.1zM87.9 66.6C87.9 67.4 87.3 68 86.5 68H73.9C73.1 68 72.5 67.4 72.5 66.6V41.5C72.5 40.7 73.1 40.1 73.9 40.1H86.5C87.3 40.1 87.9 40.7 87.9 41.5zM76.5 65.7H75V61.4C75 61 74.7 60.7 74.2 60.7 73.8 60.7 73.5 61 73.5 61.4V65.6C73.5 66 73.6 66.4 73.9 66.7S74.6 67.2 75.1 67.2H76.6C77 67.2 77.4 66.9 77.4 66.5 77.2 66 76.9 65.7 76.5 65.7M84.6 51.7C84.6 49.2 82.6 47.3 80.2 47.3S75.8 49.3 75.8 51.7V54C75.8 56.5 77.8 58.4 80.2 58.4 82.7 58.4 84.6 56.4 84.6 54zM80.2 56.9C79 56.9 78 56.2 77.6 55.2 78.3 55.8 79.3 56.1 80.2 56.1 81.2 56.1 82.1 55.8 82.8 55.2 82.3 56.2 81.3 56.9 80.2 56.9M83.1 51.7C83.1 53.3 81.8 54.6 80.2 54.6S77.3 53.3 77.3 51.7 78.6 48.8 80.2 48.8C81.8 48.7 83.1 50.1 83.1 51.7M85.7 63.9C84.7 63.9 83.9 64.7 83.9 65.7S84.7 67.5 85.7 67.5 87.5 66.7 87.5 65.7C87.6 64.8 86.7 63.9 85.7 63.9M85.7 66.1C85.5 66.1 85.4 66 85.4 65.8S85.5 65.5 85.7 65.5 86 65.6 86 65.8C86.1 65.9 85.9 66.1 85.7 66.1M31.1 49.2C31.5 49.2 31.9 48.9 31.9 48.4V39.3C31.9 38.9 31.6 38.5 31.1 38.5 30.7 38.5 30.3 38.8 30.3 39.3V48.4C30.4 48.9 30.7 49.2 31.1 49.2M31.1 54.7C31.5 54.7 31.9 54.4 31.9 53.9V51.2C31.9 50.8 31.6 50.4 31.1 50.4 30.7 50.4 30.3 50.7 30.3 51.2V53.9C30.4 54.3 30.7 54.7 31.1 54.7M74.1 59.7C74.5 59.7 74.9 59.4 74.9 58.9V58.6C74.9 58.2 74.6 57.8 74.1 57.8 73.7 57.8 73.3 58.1 73.3 58.6V59C73.4 59.4 73.7 59.7 74.1 59.7" fill="#497fff" data-fill-palette-color="accent"></path></svg></g></svg></g></svg></g></svg></g></svg></g><g></g></svg></g><defs></defs></svg><rect width="95.48100000000001" height="65.70346590909091" fill="none" stroke="none" visibility="hidden"></rect></g></svg></g></svg>